<svg width="135" height="135" viewBox="0 0 135 135" fill="none" xmlns="http://www.w3.org/2000/svg">
<g clip-path="url(#clip0_177_289)">
<path d="M83.6842 72.6732L79.319 71.9559L69.478 81.8112L73.2078 85.5414L86.3696 72.4525L83.6842 72.6732Z" fill="#29CAA6"/>
<path d="M27.1304 105.451C26.7491 103.884 26.4673 100.391 25.7932 99.3311C24.7268 97.6591 17.1568 93.1453 15.0184 91.4512C-5.56424 75.1563 1.21007 44.2551 26.3237 37.374C36.8056 34.4991 50.1387 35.7406 58.7254 42.8314C66.4446 49.2103 72.9924 58.591 80.7005 65.2127C81.9161 66.5647 85.1927 62.691 85.0988 61.6977L65.3505 41.8216C39.9496 14.6064 -5.32664 36.4028 0.513853 73.6278C3.16059 90.4911 17.306 98.8124 28.0531 110.329C28.6665 110.417 28.7991 110.373 28.6444 109.738C28.3349 108.436 27.484 106.896 27.1249 105.451H27.1304Z" fill="#29CAA6"/>
<path d="M61.4275 3.67505C93.0115 -2.67627 109.616 33.9969 93.3541 57.9289L69.9092 81.3421C69.5059 82.1257 72.9372 86.0325 74.0976 84.675C84.5906 72.458 100.764 62.9779 104.698 46.4733C113.174 10.9093 71.9924 -13.9387 44.011 8.64133L24.9424 27.905L35.8774 25.786C43.4474 16.2673 48.2823 6.31821 61.4331 3.67505H61.4275Z" fill="#29CAA6"/>
<path d="M82.6012 127.948C70.9202 134.774 56.2886 133.46 46.3315 124.174C33.8991 112.58 32.0149 90.8056 41.9498 76.9994L64.9858 54C65.4886 53.0233 62.7092 51.0588 61.9743 50.3194C60.6758 49.9773 60.4217 51.4948 59.7752 52.1349C50.1442 61.7143 34.8771 73.1864 31.0424 86.3967C20.5715 122.452 62.0572 149.485 91.0774 126.469L110.787 107.222L100.029 109.319C94.2325 115.372 89.9446 123.66 82.6012 127.948Z" fill="#29CAA6"/>
<path d="M92.4147 69.7873C91.7793 69.9583 89.0552 72.7781 89.2652 73.5947C89.5415 74.6432 94.6028 78.4838 95.6251 80.5365C95.9511 81.1931 95.7245 83.2514 96.8904 82.992L101.178 78.2961C101.151 77.496 95.4538 72.2594 94.3763 71.2275C93.774 70.6536 93.6082 69.4672 92.4147 69.7817V69.7873Z" fill="#29CAA6"/>
<path d="M69.76 42.9693C70.633 43.7695 72.4288 46.3905 73.5892 46.087C75.1806 45.6732 78.1809 39.962 81.3415 40.7455C81.7725 40.2599 77.1863 35.713 76.6283 35.8069L69.76 42.9693Z" fill="#29CAA6"/>
<path d="M59.1509 99.5573L65.5495 92.7866C60.4936 86.2091 60.8859 91.8541 57.2391 93.5095C56.3439 93.9178 55.3493 94.0889 54.3824 94.1827C53.8298 94.8062 58.5984 98.7903 59.1509 99.5573Z" fill="#29CAA6"/>
<path d="M134.834 63.7449C133.602 49.3758 122.468 39.7578 112.716 30.5426C111.34 29.2403 109.257 27.0993 107.886 26.0454C107.472 25.7253 107.361 25.2397 106.643 25.4273L108.831 36.0772C118.843 42.8369 130.337 50.1318 131.906 63.3587C135.531 93.9123 99.9184 108.905 76.7719 93.1508L54.1062 70.2121L54.0454 70.2011L52.9955 69.1416L49.4868 72.618L50.067 73.225L62.2287 85.9001L68.4891 92.3066C93.0391 120.322 138.067 101.428 134.829 63.7449H134.834Z" fill="#29CAA6"/>
<path d="M41.4085 57.9344C40.8946 57.4488 40.436 56.9577 40.1045 56.4611C39.248 55.1754 39.2646 53.9228 38.4137 52.764C37.9827 52.6646 37.3693 53.2551 36.8113 53.9228C36.0653 54.6732 34.9326 55.7879 34.3579 56.1907C33.4573 56.8253 33.844 57.7358 33.844 57.7358C34.054 58.1993 40.2039 64.3354 41.3754 65.2845L42.2539 66.1288L46.0389 62.6248L41.414 57.9289L41.4085 57.9344Z" fill="#29CAA6"/>
</g>
<defs>
<clipPath id="clip0_177_289">
<rect width="135" height="135" fill="white"/>
</clipPath>
</defs>
</svg>
